<?xml version="1.0" standalone="no"?>
<!DOCTYPE svg PUBLIC "-//W3C//DTD SVG 20010904//EN"
 "http://www.w3.org/TR/2001/REC-SVG-20010904/DTD/svg10.dtd">
<svg version="1.0" xmlns="http://www.w3.org/2000/svg"
 width="1138.000000pt" height="1280.000000pt" viewBox="0 0 1138.000000 1280.000000"
 preserveAspectRatio="xMidYMid meet">
<metadata>
Created by potrace 1.15, written by Peter Selinger 2001-2017
</metadata>
<g transform="translate(0.000000,1280.000000) scale(0.100000,-0.100000)"
fill="#cc9900" stroke="none">
<path d="M5539 12789 c-117 -27 -230 -100 -378 -243 -64 -62 -134 -122 -156
-134 -62 -31 -87 -64 -93 -120 -5 -61 19 -117 62 -143 38 -23 125 -25 211 -4
80 19 89 19 80 -2 -12 -32 -53 -207 -59 -253 -4 -25 -18 -68 -31 -95 -28 -54
-30 -76 -14 -139 8 -34 19 -48 59 -74 69 -45 187 -82 286 -89 l84 -6 0 -103 0
-104 -44 0 c-28 0 -52 -7 -69 -20 -16 -13 -40 -20 -69 -20 -35 0 -50 -6 -71
-28 l-27 -28 -2 -384 -3 -385 -180 -91 c-474 -239 -935 -370 -1560 -446 -169
-20 -787 -17 -985 5 -196 22 -425 59 -605 97 -221 48 -281 65 -276 81 2 8 9
38 14 67 10 51 11 52 46 52 39 0 98 31 107 55 10 24 -3 59 -36 100 -37 47 -38
75 -1 139 53 95 102 233 99 278 -6 84 -54 75 -176 -35 -57 -52 -81 -67 -115
-72 -156 -23 -181 -39 -202 -122 -11 -44 -15 -48 -45 -51 -28 -3 -32 -1 -25
15 15 33 17 81 5 103 -15 28 -68 50 -121 50 -59 0 -112 -56 -130 -134 l-12
-56 -37 6 c-58 10 -142 -19 -179 -61 -17 -20 -31 -40 -31 -46 0 -22 30 -80 54
-104 23 -22 23 -25 6 -25 -60 0 -101 -49 -124 -150 -18 -77 -10 -103 47 -139
54 -35 55 -56 10 -142 -35 -68 -38 -78 -37 -153 1 -45 9 -112 19 -151 11 -48
17 -124 19 -245 3 -157 26 -392 56 -575 17 -103 12 -245 -10 -316 -11 -35 -26
-75 -34 -88 -13 -24 -14 -23 -20 25 -5 35 -3 60 9 88 12 28 15 53 10 85 -9 61
-18 76 -55 91 l-30 12 0 90 c0 49 -5 98 -11 109 -16 31 -89 79 -121 79 -25 0
-28 3 -28 34 0 112 -80 168 -161 113 -53 -35 -71 -79 -67 -163 3 -68 2 -72
-23 -86 -49 -29 -83 -85 -86 -146 -7 -105 42 -147 162 -139 l70 5 -3 -73 c-3
-64 -1 -75 20 -99 26 -31 77 -45 160 -46 31 0 59 -4 62 -9 3 -4 12 -34 20 -65
15 -56 15 -57 -16 -129 -17 -39 -53 -133 -79 -207 -45 -130 -48 -134 -59 -105
-18 46 -60 215 -60 240 0 13 -9 33 -19 46 -17 22 -18 26 -4 52 28 55 13 186
-27 222 -29 26 -107 16 -136 -18 -27 -31 -47 -117 -35 -149 7 -19 2 -29 -30
-60 -66 -64 -61 -157 11 -206 35 -24 73 -26 151 -7 24 6 27 2 56 -72 55 -137
56 -151 57 -423 l1 -255 -37 -33 c-43 -39 -48 -70 -18 -97 16 -14 20 -31 20
-80 0 -34 -5 -75 -10 -92 l-11 -30 -52 14 c-28 7 -66 13 -83 13 -26 0 -32 4
-37 28 -23 117 -210 153 -262 52 -9 -17 -19 -59 -24 -93 -5 -42 -16 -75 -34
-101 -15 -22 -30 -50 -33 -62 -8 -32 19 -83 83 -153 31 -35 48 -61 40 -61 -29
0 -85 -76 -98 -134 -11 -49 -10 -58 5 -74 20 -23 74 -40 156 -49 60 -6 62 -7
55 -32 -3 -14 -9 -52 -12 -84 -4 -46 -2 -62 11 -76 19 -21 87 -41 140 -41 31
0 36 -3 36 -23 0 -29 51 -108 93 -143 31 -26 34 -27 132 -20 55 4 111 8 124 9
23 2 27 -7 76 -179 29 -100 55 -186 59 -193 10 -15 6 -15 -60 16 -56 25 -61
26 -129 14 -131 -22 -272 -106 -309 -185 -35 -75 -6 -200 55 -231 62 -33 125
-8 178 69 26 37 31 54 31 103 0 35 -8 74 -19 99 l-19 42 50 16 c82 26 116 21
188 -26 34 -24 67 -50 71 -58 5 -8 29 -66 53 -129 l45 -113 -28 -24 c-45 -38
-74 -109 -74 -185 -1 -57 3 -72 31 -115 17 -27 45 -63 61 -78 30 -28 30 -30
11 -43 -11 -8 -41 -42 -67 -76 -45 -58 -48 -66 -48 -122 0 -50 -4 -63 -22 -78
-14 -12 -23 -29 -23 -47 l0 -29 -80 41 c-105 55 -181 63 -227 24 -17 -14 -41
-26 -54 -26 -36 -1 -110 -37 -147 -73 -42 -40 -82 -117 -82 -158 0 -44 51
-110 135 -174 86 -66 109 -75 193 -75 l67 -1 -30 -16 c-39 -20 -46 -33 -34
-55 8 -15 4 -25 -20 -47 -45 -42 -43 -88 7 -137 46 -45 92 -66 224 -98 210
-52 422 -70 477 -42 33 18 86 76 96 105 8 26 42 28 49 3 3 -9 10 -46 16 -82
11 -64 45 -204 56 -233 5 -13 -5 -12 -58 5 -78 25 -255 35 -315 19 -87 -24
-135 -98 -137 -210 -1 -73 21 -111 65 -111 58 0 147 60 186 127 21 36 25 53
21 93 -4 42 -2 50 14 56 25 8 67 -2 171 -38 86 -30 88 -32 134 -97 72 -103
142 -220 135 -224 -4 -2 -28 -10 -54 -17 -45 -12 -47 -14 -54 -56 -13 -92 67
-187 223 -265 48 -24 89 -44 91 -45 2 -1 -10 -15 -25 -30 l-28 -29 -25 45
c-32 57 -75 81 -153 87 -98 8 -264 -30 -306 -68 -18 -17 -22 -30 -19 -58 3
-20 9 -45 13 -55 5 -13 5 -17 -2 -13 -19 12 -125 -12 -160 -35 -18 -13 -43
-43 -55 -66 -19 -41 -20 -46 -5 -77 11 -24 33 -41 78 -64 34 -17 69 -31 77
-31 10 0 12 -5 7 -17 -5 -10 -15 -44 -23 -75 -12 -48 -12 -63 -2 -89 21 -49
50 -62 128 -57 74 6 132 30 199 84 23 19 43 34 45 34 2 0 2 -38 0 -84 -3 -74
0 -91 23 -140 64 -136 154 -141 288 -17 l63 60 11 -29 c26 -68 106 -83 177
-32 l44 32 16 -25 c33 -50 84 -43 177 24 85 62 157 49 322 -58 59 -38 118 -72
133 -75 14 -4 24 -9 22 -12 -3 -2 -32 3 -64 11 -83 22 -231 20 -324 -4 -41
-10 -118 -37 -170 -59 -52 -22 -120 -49 -151 -62 -31 -12 -67 -32 -79 -45 -19
-20 -21 -30 -15 -79 5 -40 12 -56 22 -56 11 0 13 -5 8 -17 -42 -98 -43 -125
-10 -158 19 -20 34 -25 75 -25 44 0 56 5 81 29 16 16 29 40 30 53 2 41 -3 73
-12 82 -15 16 -10 26 14 26 12 0 33 7 46 16 21 15 23 22 18 66 -4 28 -12 57
-18 64 -17 20 -7 28 81 63 116 46 178 53 349 36 115 -11 179 -23 301 -59 179
-52 227 -69 165 -59 -22 3 -50 10 -63 14 -62 24 -324 -5 -425 -46 -28 -12 -37
-45 -21 -84 8 -19 13 -35 12 -35 -40 -14 -106 -57 -128 -82 -36 -42 -60 -119
-60 -196 0 -98 42 -168 125 -210 67 -35 108 -23 192 55 l31 29 16 -30 c23 -45
95 -84 155 -85 59 -1 93 19 110 65 34 88 27 87 71 19 50 -77 59 -77 192 -11
96 48 104 50 182 50 103 0 125 13 213 125 37 47 70 85 73 85 4 0 35 -12 71
-26 35 -15 92 -34 126 -43 l63 -16 -39 -59 c-44 -65 -42 -90 5 -102 26 -7 81
24 196 113 l56 43 380 0 c356 0 442 -4 442 -19 -1 -8 -202 -141 -270 -179 -30
-16 -109 -51 -175 -76 -66 -26 -145 -64 -175 -84 l-55 -37 -104 -233 c-100
-225 -103 -234 -86 -252 33 -36 89 -25 181 36 53 35 54 37 84 133 l29 97 103
106 c94 98 111 111 193 148 130 59 167 78 224 115 28 19 51 31 52 27 0 -4 0
-41 -1 -83 -1 -60 3 -80 17 -98 21 -26 91 -43 141 -34 21 3 32 1 32 -6 0 -19
65 -41 117 -40 26 0 65 -2 86 -6 29 -6 42 -3 58 11 15 13 33 17 74 15 53 -2
93 10 107 34 5 7 33 11 80 10 102 -2 168 -35 275 -138 64 -62 90 -95 117 -151
40 -84 51 -95 136 -135 78 -36 212 -61 324 -60 130 1 130 -3 31 129 -48 63
-93 128 -101 143 -21 38 -70 57 -151 57 -112 0 -122 6 -282 163 -80 79 -172
161 -204 182 l-58 38 3 145 3 146 125 27 c160 36 285 49 469 49 123 0 154 -3
200 -21 30 -11 84 -23 120 -26 62 -5 65 -4 46 11 -19 15 -18 16 25 10 37 -6
80 -20 123 -42 14 -7 7 34 -13 73 -11 21 -19 39 -17 40 17 12 188 26 238 21
161 -18 233 -36 299 -75 96 -57 176 -95 260 -125 233 -84 396 -73 609 40 96
52 115 58 226 75 66 11 166 20 222 22 106 2 120 9 86 39 -46 40 -133 70 -298
103 -69 13 -153 37 -187 51 -47 20 -85 28 -148 32 -152 7 -519 -53 -658 -108
-60 -25 -88 -30 -150 -29 -84 0 -166 13 -142 21 8 3 67 22 131 42 63 20 160
59 215 87 94 47 280 110 426 144 67 15 69 15 185 -14 210 -53 287 -64 413 -58
197 8 340 64 439 170 136 145 112 130 286 186 88 29 183 57 210 63 87 18 80
25 -37 36 -351 36 -678 38 -838 6 -163 -33 -379 -122 -455 -187 -22 -19 -58
-43 -80 -54 -38 -20 -196 -73 -215 -73 -5 0 43 52 107 115 64 63 120 115 125
115 32 0 179 76 287 147 165 111 209 133 267 133 39 0 51 -5 78 -33 17 -18 39
-47 48 -65 22 -41 58 -55 135 -50 89 6 107 24 100 103 l-4 60 38 -3 c54 -6 84
16 98 72 17 69 14 92 -15 115 -62 49 -197 10 -211 -60 -5 -28 -8 -29 -62 -29
-31 0 -96 -5 -146 -10 -109 -13 -177 -42 -292 -128 -87 -65 -191 -128 -199
-120 -6 7 282 288 295 288 6 0 78 36 160 80 271 147 503 243 616 256 l56 7 47
-49 c33 -34 52 -66 65 -105 35 -112 91 -156 227 -178 61 -10 92 -22 168 -67
111 -66 213 -158 243 -221 12 -25 25 -71 28 -102 l6 -56 30 80 c27 72 30 92
30 195 0 112 -1 117 -34 177 -27 51 -63 89 -187 200 -186 167 -272 227 -349
244 l-57 13 46 14 c62 20 107 62 286 262 200 225 243 259 360 294 30 8 72 26
94 39 l39 24 -48 17 c-30 10 -80 16 -129 16 -140 0 -275 -59 -484 -211 -61
-45 -122 -79 -175 -99 -186 -69 -263 -119 -282 -181 -4 -12 -33 -47 -64 -78
-31 -31 -99 -110 -150 -176 -91 -117 -95 -120 -174 -158 l-82 -38 46 48 c40
42 136 187 154 234 4 11 19 15 54 15 56 -1 85 19 108 72 17 40 4 93 -29 116
-19 13 -20 18 -8 45 10 26 23 34 77 51 36 11 81 20 100 20 42 0 118 36 190 90
28 22 114 108 191 192 159 174 230 239 462 428 189 154 361 320 413 400 30 45
42 80 68 200 50 233 107 374 166 419 l28 20 -34 1 c-42 0 -212 -76 -303 -137
-82 -54 -98 -74 -232 -291 -59 -94 -108 -172 -110 -172 -1 0 0 29 2 64 5 78
-18 220 -57 352 -16 54 -26 101 -23 104 43 30 197 133 233 153 35 21 60 27
105 27 145 2 194 32 194 120 0 40 -5 56 -29 82 -27 30 -32 32 -104 32 -66 1
-78 -2 -100 -22 -14 -13 -28 -36 -32 -50 -17 -68 -57 -133 -93 -151 -20 -10
-72 -44 -115 -75 -43 -31 -82 -56 -87 -56 -4 0 -11 12 -14 26 -6 21 -9 24 -21
14 -58 -48 68 147 245 380 35 47 142 165 236 262 178 182 264 287 307 373 40
80 67 244 87 515 5 80 13 181 16 225 3 44 4 78 1 75 -3 -3 -22 -39 -43 -80
-56 -113 -88 -155 -146 -190 -196 -120 -266 -248 -427 -790 -77 -258 -84 -273
-182 -430 -81 -130 -84 -134 -87 -100 -2 19 -1 72 3 118 l7 82 29 0 c22 0 32
7 44 30 36 69 27 173 -17 204 -19 14 -19 18 -7 85 11 62 17 74 46 97 24 18 54
68 111 182 44 86 106 199 140 250 67 102 186 332 251 483 27 63 67 199 115
390 41 162 73 295 71 297 -1 1 -73 -65 -159 -149 -127 -123 -156 -147 -156
-128 1 13 5 82 10 153 8 127 9 129 41 163 42 42 43 90 5 158 -30 54 -33 85
-10 85 37 0 96 25 132 56 41 34 86 116 101 183 10 47 4 50 -61 27 -21 -8 -38
-12 -38 -10 0 2 20 31 44 66 113 163 247 394 270 467 49 157 69 506 34 584
-22 47 -46 46 -70 -3 -41 -84 -178 -381 -203 -439 -32 -76 -67 -244 -90 -431
-13 -101 -23 -143 -38 -165 -54 -77 -113 -137 -105 -107 1 4 -2 203 -6 442
l-8 435 45 115 c282 716 314 809 333 970 43 366 24 566 -72 737 l-38 68 -14
-35 c-36 -87 -101 -293 -117 -370 -23 -110 -15 -217 25 -370 44 -162 50 -287
21 -400 -31 -120 -163 -505 -179 -520 -2 -3 -2 45 2 106 13 231 -60 677 -143
871 -16 38 -40 115 -54 173 -33 140 -73 240 -153 385 -135 242 -243 371 -371
438 -39 20 -76 37 -82 37 -5 0 6 -32 26 -71 32 -63 37 -85 44 -173 5 -55 11
-119 15 -141 11 -71 59 -158 139 -255 225 -272 256 -307 314 -344 52 -34 62
-46 80 -95 51 -141 92 -347 114 -566 14 -142 11 -739 -3 -730 -5 3 -6 21 -3
40 3 20 -1 58 -10 88 -21 69 -24 134 -14 367 8 172 7 202 -8 255 -38 133 -117
255 -240 375 l-67 65 6 -91 c6 -100 47 -271 95 -404 18 -47 49 -150 71 -230
22 -80 55 -192 74 -250 19 -57 33 -106 32 -108 -7 -6 -119 201 -165 304 -65
147 -123 262 -184 364 -72 121 -93 146 -141 170 -53 25 -182 42 -263 34 l-62
-7 5 -31 c15 -85 40 -167 67 -226 52 -110 249 -290 487 -445 110 -71 189 -152
271 -277 69 -106 66 -85 73 -532 l5 -320 -20 30 c-50 73 -69 124 -79 216 -14
117 -43 234 -70 289 -12 23 -43 69 -70 103 -58 74 -195 292 -222 352 -10 24
-25 44 -33 44 -24 0 -27 -42 -11 -141 9 -52 20 -155 26 -229 12 -151 18 -175
68 -275 83 -166 203 -319 320 -406 l82 -61 -58 -37 c-31 -21 -63 -45 -71 -55
-18 -21 -16 -88 4 -126 18 -35 12 -53 -21 -69 -54 -24 -90 -11 -114 41 -17 38
-17 40 6 85 36 70 34 157 -5 211 -16 22 -35 43 -42 48 -21 12 -95 7 -127 -10
-41 -21 -56 -50 -54 -109 1 -63 32 -115 93 -156 42 -30 49 -39 49 -68 0 -30
-3 -33 -28 -33 -37 0 -122 -29 -146 -49 -40 -35 1 -145 64 -171 66 -27 154 27
166 102 4 23 12 38 21 38 25 0 31 -42 17 -125 -22 -123 4 -223 83 -314 l32
-38 -73 -259 c-41 -142 -102 -361 -137 -486 -35 -125 -65 -225 -67 -223 -2 2
-5 176 -6 387 l-1 383 -31 70 c-18 39 -42 113 -54 165 -55 236 -58 244 -118
311 -50 55 -132 119 -153 119 -4 0 8 -29 26 -65 45 -86 50 -117 30 -210 -20
-100 -45 -286 -45 -341 0 -60 46 -281 82 -394 29 -91 72 -187 124 -275 13 -23
31 -65 39 -92 8 -27 32 -76 53 -109 37 -58 38 -60 27 -111 -5 -28 -13 -54 -16
-58 -4 -3 -41 59 -83 137 -94 175 -133 230 -179 251 -73 35 -178 11 -206 -47
-16 -35 -1 -128 27 -159 24 -28 74 -47 121 -47 53 0 69 7 87 41 26 51 86 27
104 -41 17 -64 -20 -103 -74 -79 -55 25 -176 -55 -176 -117 0 -35 28 -80 57
-93 34 -15 99 -14 132 4 30 15 45 45 56 108 4 27 13 41 31 49 13 6 27 8 30 5
4 -3 10 -53 14 -110 4 -57 12 -112 18 -123 6 -12 7 -47 1 -99 -4 -44 -8 -127
-8 -185 -1 -149 -23 -273 -56 -316 -14 -19 -29 -34 -33 -34 -4 0 -16 14 -27
32 l-19 32 -6 -24 c-4 -14 -27 -74 -51 -135 l-44 -110 -7 103 c-9 131 -40 294
-83 436 -31 100 -83 239 -85 226 -1 -3 -3 -50 -6 -105 -11 -212 -29 -311 -87
-470 -30 -82 -60 -171 -67 -197 -7 -27 -15 -48 -19 -48 -3 0 -24 35 -46 77
-56 106 -218 353 -335 508 -169 225 -206 257 -231 202 -9 -21 -3 -33 46 -103
106 -148 204 -330 240 -451 8 -26 24 -120 35 -208 22 -178 59 -340 97 -425 13
-30 45 -76 71 -102 33 -35 41 -48 29 -48 -34 0 -116 -50 -132 -80 -33 -64 -5
-213 52 -272 31 -32 93 -52 136 -44 l29 6 -21 -34 c-12 -18 -41 -63 -66 -100
-24 -36 -81 -140 -126 -230 -53 -103 -90 -166 -103 -172 -12 -5 -22 -20 -24
-36 -2 -15 -17 -38 -33 -53 -35 -29 -54 -32 -44 -7 25 65 72 218 115 379 65
241 72 326 41 473 -27 122 -79 271 -121 345 -42 74 -55 112 -125 380 l-8 30
-7 -40 c-4 -22 -15 -73 -24 -113 -9 -40 -16 -92 -16 -116 0 -38 -20 -206 -35
-294 l-6 -33 -34 51 c-58 86 -155 201 -274 323 -63 64 -116 116 -118 114 -1
-2 11 -41 28 -87 57 -157 89 -305 104 -480 22 -262 31 -279 240 -455 61 -51
120 -103 131 -116 36 -40 94 -164 94 -201 0 -40 -8 -52 -24 -35 -67 72 -76 88
-76 140 0 77 -15 99 -83 121 -75 24 -128 12 -153 -36 -15 -29 -15 -34 0 -62
23 -44 72 -73 134 -79 29 -4 56 -8 61 -11 4 -3 31 -38 58 -78 l50 -73 -16 -37
-16 -37 -42 19 c-37 16 -43 23 -43 50 0 67 -45 110 -114 110 -36 0 -110 -55
-121 -90 -10 -32 20 -75 72 -101 26 -13 50 -25 52 -27 15 -8 -61 -64 -113 -83
-178 -64 -293 -178 -423 -419 -39 -72 -102 -236 -147 -382 l-37 -117 -77 -63
c-42 -35 -82 -67 -89 -71 -7 -4 19 57 57 135 82 172 132 304 173 458 29 110
31 124 31 315 1 159 -3 217 -18 285 -47 216 -156 459 -196 435 -14 -9 -10 -65
14 -190 18 -95 20 -162 6 -274 -12 -95 -17 -108 -95 -286 -119 -271 -129 -330
-101 -585 21 -187 5 -244 -113 -399 -72 -94 -95 -114 -167 -140 -59 -23 -164
-42 -164 -31 0 4 15 27 34 51 110 145 253 393 291 504 17 51 19 82 50 706 16
310 16 403 3 369 -3 -8 -36 -108 -73 -222 -76 -237 -96 -282 -190 -433 -84
-135 -122 -216 -131 -271 -3 -24 4 -128 16 -236 31 -271 28 -286 -79 -421 -59
-75 -59 -75 -125 -86 -140 -25 -300 -42 -328 -35 -47 10 -104 68 -123 125 -15
43 -20 49 -44 49 -15 0 -51 -12 -79 -26 -41 -20 -59 -37 -82 -78 -17 -28 -30
-59 -30 -68 0 -10 -10 -20 -22 -22 -45 -9 -424 -65 -480 -71 l-58 -6 0 243 0
243 118 69 c713 420 1279 961 1744 1671 650 991 1143 2306 1463 3900 165 823
292 1857 323 2623 4 94 5 172 2 172 -3 0 -57 -13 -120 -30 -244 -62 -543 -116
-810 -145 -194 -22 -665 -30 -855 -16 -632 46 -1215 204 -1730 469 l-150 77
-5 405 c-3 223 -7 406 -8 408 -9 13 -80 32 -120 32 -31 0 -54 5 -61 14 -7 8
-30 17 -52 21 l-40 7 3 96 3 97 53 7 c77 11 193 52 275 98 119 65 112 54 93
144 -9 43 -16 108 -16 145 0 93 -17 237 -39 346 -16 75 -34 120 -98 241 -89
171 -135 224 -233 272 -98 48 -202 63 -291 41z m-3981 -2879 c11 0 34 11 50
25 l29 25 7 -138 c46 -912 191 -1988 391 -2892 311 -1406 759 -2572 1341
-3491 351 -554 805 -1049 1298 -1417 127 -94 379 -260 513 -337 l102 -59 3
-287 3 -287 -190 -6 c-104 -3 -284 -8 -400 -12 l-210 -5 -30 41 c-36 50 -106
103 -159 120 -41 13 -132 8 -149 -9 -12 -12 16 -63 53 -95 18 -14 28 -26 23
-26 -24 0 -124 35 -178 62 l-59 30 48 19 c27 10 60 28 74 41 29 27 61 93 62
126 0 15 7 26 20 29 29 8 25 15 -22 46 -67 43 -147 37 -205 -16 -39 -35 -33
-14 16 50 25 34 58 67 73 74 60 25 62 73 4 108 -57 36 -112 25 -140 -27 l-15
-27 -1 40 c0 22 10 72 21 112 37 125 7 162 -103 125 -35 -11 -64 -19 -65 -19
-1 1 10 54 23 117 29 131 26 167 -16 233 -29 46 -111 102 -167 113 -34 7 -44
-3 -88 -85 -38 -71 -68 -79 -110 -29 -44 53 -95 88 -131 88 -68 0 -139 -95
-152 -203 -6 -48 -15 -73 -35 -96 -30 -36 -42 -84 -35 -146 l5 -44 -23 16
c-23 15 -24 19 -24 157 1 157 16 266 50 344 18 41 34 60 78 90 77 52 115 101
115 151 0 72 -73 138 -127 113 -48 -22 -76 -73 -87 -163 -13 -101 -30 -200
-59 -334 -14 -61 -23 -139 -24 -202 -1 -100 -1 -102 -21 -89 -39 26 -83 95
-96 151 -15 67 -9 83 75 195 68 91 84 136 66 180 -15 36 -57 71 -119 98 -42
19 -43 20 -22 32 58 31 79 135 42 215 -23 52 -50 74 -108 94 -27 9 -50 19 -53
22 -3 3 24 28 59 55 75 58 111 117 111 184 0 95 -56 151 -155 153 -30 1 -55 2
-55 3 0 1 7 18 15 37 35 85 4 183 -67 212 -44 17 -101 20 -129 5 -42 -23 -52
-66 -46 -192 l7 -118 -30 -32 c-26 -28 -32 -31 -40 -17 -5 8 -27 24 -49 34
-48 21 -61 14 -92 -46 -34 -68 -20 -174 33 -251 l19 -27 -28 14 c-38 20 -73
19 -133 -4 l-50 -19 0 26 c0 78 -54 165 -110 177 -26 6 -29 10 -24 33 18 74
112 238 179 312 103 113 133 191 106 273 -35 105 -132 116 -217 25 -65 -69
-68 -95 -19 -189 19 -38 35 -77 35 -88 0 -11 -27 -60 -60 -109 -33 -50 -63
-99 -68 -111 -6 -18 -14 -11 -59 57 -51 77 -143 180 -197 220 l-28 21 51 58
c28 32 57 75 63 96 6 21 37 68 69 105 101 117 131 166 137 220 4 44 1 52 -27
85 -18 20 -41 39 -52 42 -23 8 -26 25 -4 25 28 0 115 50 154 89 99 99 126 287
43 292 -36 2 -79 -4 -114 -16 -21 -7 -38 -11 -38 -8 0 3 16 24 36 46 19 23 54
80 77 126 34 67 42 96 45 152 4 62 2 70 -21 93 -15 14 -38 26 -52 26 -29 0
-31 7 -10 34 22 29 18 71 -8 102 -26 30 -72 34 -146 14 -52 -14 -67 -38 -74
-123 -4 -37 -9 -72 -12 -77 -3 -5 -21 -2 -40 6 -56 23 -123 18 -162 -12 -39
-30 -73 -91 -73 -133 0 -29 0 -29 -30 -15 -21 11 -35 12 -48 5 -18 -9 -20 -5
-25 44 -6 57 -45 155 -75 189 -9 10 -30 27 -45 36 -20 12 -41 46 -71 113 l-43
95 56 111 c59 117 114 201 131 201 5 0 10 -16 10 -35 0 -89 53 -128 173 -129
76 -1 79 0 108 32 24 27 29 41 29 86 0 100 -60 152 -189 163 -107 9 -149 -11
-210 -98 -27 -38 -68 -114 -92 -170 -38 -88 -44 -98 -52 -77 -16 44 -95 303
-120 395 l-25 93 71 20 c241 69 479 169 575 239 44 33 82 84 82 112 0 9 -14
30 -30 46 l-31 30 78 76 c91 88 148 175 139 210 -11 44 -45 77 -79 77 l-31 0
61 63 c68 69 97 118 88 147 -8 24 -54 62 -66 54 -13 -8 -11 7 6 56 42 119 -10
210 -120 210 -64 0 -102 -27 -175 -124 -37 -50 -79 -102 -93 -114 l-25 -24
-11 21 c-16 30 -70 28 -104 -3 -42 -39 -44 -90 -11 -273 5 -24 3 -33 -7 -33
-9 0 -15 14 -17 36 -3 44 -24 86 -57 112 -25 20 -26 25 -23 106 3 78 1 86 -22
111 -14 15 -46 38 -71 51 -39 19 -48 29 -53 58 -10 51 -93 138 -158 166 -38
16 -64 21 -101 17 l-49 -4 7 36 c12 64 84 232 130 301 50 75 108 132 160 157
31 15 37 15 74 -1 56 -22 98 -20 146 7 144 80 51 275 -108 227 -74 -22 -299
-260 -401 -423 l-38 -62 7 50 c29 215 103 442 221 676 26 52 52 109 58 127
l11 32 105 4 c89 3 116 8 177 34 87 35 166 85 193 120 31 38 26 85 -11 116
-17 14 -36 26 -42 27 -7 0 23 10 65 23 95 28 150 63 172 111 23 48 15 89 -29
154 -24 34 -35 62 -35 85 0 50 -34 86 -83 88 -37 1 -39 2 -33 31 3 16 6 53 6
81 0 47 4 56 56 116 68 81 114 170 114 223 0 31 -7 46 -34 73 -28 28 -41 34
-78 34 -78 0 -175 -83 -204 -176 l-17 -53 -34 29 c-37 33 -71 45 -108 38 -14
-3 -25 -4 -25 -3 0 14 65 155 87 187 16 24 35 56 43 72 8 16 45 53 82 83 37
29 79 69 94 88 l26 34 32 -24 c18 -14 42 -25 54 -25z m-464 -613 c0 -78 -4
-164 -9 -192 -8 -52 -91 -304 -104 -318 -11 -11 -35 308 -29 389 6 81 30 135
96 212 24 28 45 52 46 52 0 0 1 -64 0 -143z m234 -494 c-17 -35 -33 -63 -34
-63 -2 0 -13 9 -24 20 -25 25 -72 26 -93 3 -8 -10 -20 -37 -26 -60 -7 -25 -30
-63 -59 -95 -26 -29 -58 -66 -70 -82 -18 -24 -22 -25 -22 -10 0 11 -5 64 -10
118 l-10 99 58 61 c114 121 171 165 236 184 l61 18 12 -65 c12 -65 11 -67 -19
-128z m9456 -1680 c-16 -219 -23 -276 -37 -291 -8 -10 -22 -32 -31 -49 -9 -18
-20 -33 -24 -33 -5 0 -19 19 -32 43 -19 33 -25 60 -28 134 -5 100 7 151 53
229 24 40 29 44 65 44 l40 0 -6 -77z m-10105 -803 c14 -89 14 -99 -4 -74 -25
36 -85 162 -85 178 0 13 7 11 39 -9 35 -24 39 -31 50 -95z m310 -457 c-31 -50
-36 -24 -7 35 19 39 23 43 26 24 2 -12 -7 -39 -19 -59z m136 -1774 c26 -16 33
-25 25 -33 -7 -7 -19 -1 -42 22 -38 37 -33 40 17 11z m8972 -616 c-29 -55
-239 -272 -329 -339 -36 -26 -77 -46 -108 -53 -51 -11 -110 -15 -110 -7 0 12
91 172 142 250 32 48 58 92 58 96 0 13 96 80 114 80 9 0 16 -6 16 -13 0 -8 14
-33 31 -57 28 -39 32 -41 47 -26 15 15 17 14 27 -5 11 -19 16 -15 71 55 32 41
60 73 62 71 2 -2 -8 -25 -21 -52z m-8316 -269 c26 -44 56 -100 67 -126 l20
-47 -33 -19 -33 -20 -49 28 c-60 34 -79 70 -124 231 -20 72 -29 119 -24 137 7
27 7 27 68 -39 34 -37 83 -102 108 -145z m7351 -477 l47 -12 -69 -168 c-37
-92 -73 -174 -80 -182 -7 -8 -34 -28 -62 -45 l-49 -31 27 46 c19 32 29 68 34
123 5 42 19 121 32 174 19 79 27 98 43 101 11 2 22 5 25 5 3 1 26 -4 52 -11z
m168 -23 c0 -11 -113 -201 -137 -229 -13 -16 -23 -25 -21 -20 1 6 25 65 52
133 47 116 51 122 78 122 15 0 28 -2 28 -6z m585 -51 c-11 -3 -64 -17 -117
-33 -54 -15 -98 -26 -98 -25 0 14 86 51 130 56 70 8 114 9 85 2z m-7552 -150
c-16 -7 -38 -12 -50 -13 -23 0 -23 0 5 40 l27 39 23 -27 22 -27 -27 -12z m401
-499 c5 -14 4 -15 -9 -4 -17 14 -19 20 -6 20 5 0 12 -7 15 -16z m553 -367 c12
-7 41 -34 65 -62 23 -27 36 -45 28 -40 -16 9 -128 92 -144 107 -15 13 26 9 51
-5z m423 -313 c0 -2 -9 0 -20 6 -11 6 -20 13 -20 16 0 2 9 0 20 -6 11 -6 20
-13 20 -16z"/>
</g>
</svg>
